PathFileType	4	(X/Y/Z)	Kaydara																																																																																																																																																																																																																												
DataRate	CameraRate	NumFrames	NumMarkers	Units	OrigDataRate	OrigDataStartFrame	OrigNumFrames																																																																																																																																																																																																																								
60	60	4	74	mm	60	2278	226																																																																																																																																																																																																																								
Frame#	Time	N_lasi			N_rasi			N_rpsi			N_lpsi			N_fneck			N_bneck			N_fhead			N_rhead			N_lhead			N_rshld			N_relbtop			N_relbext			N_relblow			N_rwrext			N_rwrtop			N_rwrlow			N_lshld			N_lelblow			N_lelbtop			N_lwrext			N_lwrtop			N_lwrlow			N_rtopleg			N_ltopleg			N_rkneefr			N_rkneebk			N_rkneeis			N_lkneefr			N_lknssbk			N_lkneeis			N_rankfr			N_rankis			N_rankbk			N_lankfr			N_lankbk			N_lankis			D_lasi			D_rasi			D_lpsi			D_fneck			D_bneck			D_fhead			D_rhead			D_lhead			D_rshld			D_relbtop			D_relbext			D_relblow			D_rwrext			D_rwrtop			D_rwrlow			D_lshld			D_lelbext			D_lelblow			D_lelbtop			D_lwrext			D_lwrtop			D_lwrlow			D_rtopleg			D_ltopleg			D_rkneefr			D_rkneebk			D_rkneeis			D_lkneefr			D_lknssbk			D_lkneeis			D_rankfr			D_rankis			D_rankbk			D_lankfr			D_lankbk			D_lankis			D_rpsi			N_lelbext		
		X1	Y1	Z1	X2	Y2	Z2	X3	Y3	Z3	X4	Y4	Z4	X5	Y5	Z5	X6	Y6	Z6	X7	Y7	Z7	X8	Y8	Z8	X9	Y9	Z9	X10	Y10	Z10	X11	Y11	Z11	X12	Y12	Z12	X13	Y13	Z13	X14	Y14	Z14	X15	Y15	Z15	X16	Y16	Z16	X17	Y17	Z17	X18	Y18	Z18	X19	Y19	Z19	X20	Y20	Z20	X21	Y21	Z21	X22	Y22	Z22	X23	Y23	Z23	X24	Y24	Z24	X25	Y25	Z25	X26	Y26	Z26	X27	Y27	Z27	X28	Y28	Z28	X29	Y29	Z29	X30	Y30	Z30	X31	Y31	Z31	X32	Y32	Z32	X33	Y33	Z33	X34	Y34	Z34	X35	Y35	Z35	X36	Y36	Z36	X37	Y37	Z37	X38	Y38	Z38	X39	Y39	Z39	X40	Y40	Z40	X41	Y41	Z41	X42	Y42	Z42	X43	Y43	Z43	X44	Y44	Z44	X45	Y45	Z45	X46	Y46	Z46	X47	Y47	Z47	X48	Y48	Z48	X49	Y49	Z49	X50	Y50	Z50	X51	Y51	Z51	X52	Y52	Z52	X53	Y53	Z53	X54	Y54	Z54	X55	Y55	Z55	X56	Y56	Z56	X57	Y57	Z57	X58	Y58	Z58	X59	Y59	Z59	X60	Y60	Z60	X61	Y61	Z61	X62	Y62	Z62	X63	Y63	Z63	X64	Y64	Z64	X65	Y65	Z65	X66	Y66	Z66	X67	Y67	Z67	X68	Y68	Z68	X69	Y69	Z69	X70	Y70	Z70	X71	Y71	Z71	X72	Y72	Z72	X73	Y73	Z73	X74	Y74	Z74
																																																																																																																																																																																																																															
57	37.95	-532.75204	1257.86041	-71.95634	-525.95726	1269.71779	-300.91743	-259.72548	1231.57211	-359.69978	-273.38572	1226.06613	-10.11452	-381.46919	1608.60413	-170.40709	-218.97596	1662.38144	-148.50443	-464.90009	1802.53754	-184.60037	-270.51163	1773.41492	-235.86575	-325.75356	1777.59048	-89.48971	-254.79805	1633.63449	-376.96976	-227.36488	1534.86694	-638.94604	-317.13278	1511.40457	-638.20549	-274.94171	1612.96753	-633.99895	-236.0474	1547.19421	-964.61929	-276.62619	1570.728	-974.21799	-313.63497	1541.41647	-965.01755	-233.87974	1608.78357	24.70691	-215.89621	1569.40903	283.42491	-216.18036	1482.52731	283.57338	-174.84116	1494.60831	601.39339	-192.23324	1537.02957	612.97062	-241.90893	1517.12936	609.85725	-426.8063	1065.87097	-439.21837	-369.36272	1040.46089	48.62495	-430.2224	561.08925	-256.10416	-326.39614	578.93166	-327.00176	-366.7091	564.11289	-164.55183	-381.24363	539.18354	-100.44607	-255.20527	555.85003	-40.03211	-255.38109	547.89581	-189.76706	-297.18924	139.76709	-270.77209	-298.58559	154.55008	-190.81675	-216.95074	141.88479	-216.18698	-332.23812	192.97939	-118.67955	-259.49654	185.69204	-75.41652	-265.59654	194.19204	-163.01652	-467.69333	1042.88239	1742.52121	-432.37755	1063.0928	1456.36871	-272.39916	1133.35159	1743.39523	-408.21594	1570.0148	1584.31992	-266.92787	1595.92865	1593.15048	-450.6966	1774.20624	1576.00494	-290.1083	1726.2471	1496.77322	-294.77837	1736.22574	1652.89719	-300.09565	1597.02316	1502.84332	-426.83666	1735.72952	1294.80255	-461.3097	1742.00012	1359.0921	-361.94645	1764.65286	1340.13733	-461.10786	2011.23535	1328.87497	-413.69793	2009.9826	1359.48883	-445.71754	1995.06363	1401.98975	-316.45258	1576.37894	1774.6521	-412.0845	1527.54318	2031.41525	-310.76698	1553.46436	2025.40451	-346.53221	1485.10437	2049.09821	-391.69399	1608.46115	2276.61133	-378.58894	1646.91498	2259.48944	-417.55325	1663.94699	2234.07455	-340.9729	1005.29579	1409.43771	-325.75867	1010.79895	1810.30548	-377.24457	455.01255	1450.71884	-277.86201	491.64337	1423.00812	-284.83734	458.94245	1543.55606	-358.3514	448.03802	1771.45081	-245.94625	486.3998	1787.25647	-317.65549	444.2783	1679.8558	-324.65694	130.57647	1417.70309	-295.44218	127.20266	1482.82303	-244.38644	128.8055	1417.96387	-323.24085	135.0161	1792.74963	-250.54579	125.06006	1806.78528	-294.17303	124.30517	1733.41797	-247.55116	1149.53415	1527.14249	-301.21475	1509.29398	289.51635
58	37.967	-532.55333	1258.00461	-72.20864	-525.44273	1269.84032	-301.20749	-259.15609	1231.54686	-359.71794	-273.2052	1226.10519	-10.07483	-380.86098	1608.64639	-170.67242	-218.36779	1662.42371	-148.76976	-464.41078	1802.5412	-184.75698	-269.77551	1773.34427	-236.10172	-325.4155	1777.57523	-89.50729	-254.57705	1633.48923	-377.4918	-227.73394	1534.28375	-639.05407	-317.42926	1510.78842	-638.03356	-275.58268	1612.29477	-634.18365	-238.12862	1545.9288	-964.74602	-278.54465	1569.51065	-974.32655	-315.68874	1540.37857	-964.90463	-233.55463	1608.7767	24.6754	-216.49776	1569.70337	283.42182	-216.5976	1482.79221	283.6417	-176.48117	1495.56747	601.66725	-193.98149	1537.91672	613.02265	-243.79478	1518.11798	609.81209	-426.26156	1066.01624	-439.48597	-369.30805	1040.5011	48.29031	-429.94755	561.12236	-256.28647	-326.09619	578.96393	-327.10171	-366.50505	564.14543	-164.75634	-381.16905	539.22569	-100.56977	-255.16142	555.85579	-40.05153	-255.20935	547.89131	-189.78451	-297.14298	139.77925	-270.80317	-298.5162	154.57082	-190.89581	-216.94145	141.83905	-216.1607	-332.25761	193.02492	-118.72147	-259.51014	185.721	-75.40994	-265.61014	194.221	-163.00994	-467.47604	1042.96188	1742.51434	-432.31087	1063.02673	1456.45782	-272.11843	1133.41637	1743.46405	-408.42808	1570.06348	1584.22699	-267.0932	1595.92987	1593.25043	-450.83252	1774.3219	1575.84686	-289.87148	1726.18011	1495.27191	-294.9758	1736.23383	1652.94052	-299.73944	1597.11777	1503.1366	-426.95442	1735.25528	1294.27307	-461.42708	1741.46942	1358.6203	-362.21016	1764.39117	1340.09583	-461.76765	2010.63873	1329.02618	-414.17343	2009.51645	1359.64691	-446.14964	1994.46472	1402.33734	-316.92108	1575.36667	1775.75882	-409.66087	1524.56223	2031.01532	-308.80152	1545.61584	2026.61957	-347.26688	1478.78845	2050.73318	-397.44232	1614.5343	2270.72845	-377.75307	1650.63904	2255.24414	-412.22221	1671.51413	2226.26984	-340.93765	1005.28893	1409.47952	-325.46867	1010.81177	1810.38055	-377.24586	455.04562	1450.72617	-277.87884	491.64379	1422.96768	-284.84354	458.93791	1543.55743	-358.32901	448.05355	1771.51337	-245.891	486.4151	1787.26196	-317.6737	444.27654	1679.89716	-324.65618	130.59377	1417.6947	-295.42709	127.26045	1482.8476	-244.39426	128.80466	1417.966	-323.28716	135.06801	1792.8064	-250.5608	125.03547	1806.73782	-294.1571	124.32115	1733.38577	-247.48035	1149.55246	1527.13013	-301.64169	1509.55978	289.35364
59	37.983	-532.36595	1258.15605	-72.4689	-524.99001	1269.944	-301.43171	-258.59783	1231.58249	-359.74384	-272.98399	1226.09627	-10.09539	-380.38952	1608.70285	-170.87893	-217.89633	1662.48016	-148.97628	-463.93406	1802.57172	-184.96925	-269.61006	1773.479	-236.07782	-325.20264	1777.55508	-89.42267	-254.29211	1633.24692	-377.86602	-228.35321	1533.61908	-639.29829	-318.35564	1509.93332	-637.76913	-275.85386	1611.45172	-634.42753	-240.05116	1544.84512	-965.14694	-280.61319	1568.49899	-974.47418	-317.56126	1539.41895	-964.89243	-233.37263	1608.77518	24.57245	-216.94372	1569.83475	283.39092	-217.10541	1483.00903	283.68542	-178.20759	1496.26266	601.84818	-195.75958	1538.80035	613.09635	-245.43869	1518.97308	609.71725	-425.57999	1066.11061	-439.74518	-369.25201	1040.50476	47.8917	-429.69257	561.17191	-256.44686	-325.77557	579.00223	-327.19513	-366.37749	564.17221	-164.86301	-381.05431	539.2606	-100.68378	-255.17572	555.8728	-40.00993	-255.07027	547.89547	-189.80572	-297.09366	139.79452	-270.82674	-298.49382	154.59488	-190.9376	-216.9046	141.83678	-216.13831	-332.22279	193.02395	-118.76	-259.5225	185.71934	-75.39369	-265.6225	194.21934	-162.99369	-467.24277	1042.97943	1742.4678	-432.19883	1062.91603	1456.49094	-271.93501	1133.40187	1743.52478	-408.73287	1570.13428	1584.12903	-267.36879	1595.90881	1593.42422	-450.93319	1774.45999	1575.51849	-290.65361	1726.28647	1498.2489	-295.19154	1736.28799	1652.98904	-300.15949	1596.92139	1502.95486	-426.94263	1734.72427	1293.69125	-461.62846	1740.90332	1358.08151	-362.59602	1763.92746	1339.83994	-462.33292	2009.92126	1329.47128	-414.85245	2008.94913	1359.98474	-446.76476	1993.66608	1402.76749	-317.15839	1574.021	1776.88766	-407.11552	1520.2829	2030.8989	-307.37391	1537.68143	2027.46918	-347.76333	1472.13547	2053.54477	-402.08191	1622.13196	2264.76013	-376.81278	1655.05768	2249.66156	-406.94622	1678.26416	2216.73691	-340.84419	1005.2816	1409.54407	-325.18734	1010.76843	1810.41336	-377.27669	455.05478	1450.78705	-277.89606	491.64982	1423.004	-284.82559	458.94855	1543.5849	-358.32321	448.06252	1771.59073	-245.87687	486.40263	1787.26685	-317.71498	444.30519	1679.93942	-324.70573	130.60038	1417.71545	-295.45128	127.26124	1482.86301	-244.41456	128.80845	1417.98035	-323.29941	135.07248	1792.78519	-250.51825	125.05372	1806.71204	-294.18211	124.32137	1733.41568	-247.37646	1149.71832	1527.11395	-302.21516	1509.68399	289.00784
60	38	-532.18414	1258.3049	-72.70604	-524.43123	1270.03181	-301.6737	-258.01525	1231.59538	-359.72038	-272.77349	1226.15547	-10.19552	-380.04131	1608.84872	-170.97542	-217.54812	1662.62604	-149.07276	-463.44418	1802.66876	-185.16956	-269.03126	1773.48999	-236.20764	-324.1785	1777.60147	-90.03312	-253.91159	1632.94983	-378.28423	-229.1534	1532.65625	-639.69521	-318.70623	1509.29108	-637.71275	-276.34806	1610.84061	-634.55849	-242.22359	1543.83621	-965.34294	-282.71576	1567.41608	-974.58572	-319.96279	1538.4288	-964.76158	-233.16065	1608.84354	24.51631	-217.43267	1569.97757	283.35135	-217.72581	1483.28644	283.75076	-180.23542	1496.98792	602.21142	-197.59508	1539.51065	613.3157	-247.38592	1519.76517	609.74056	-425.04768	1066.10176	-439.80892	-369.08314	1040.52422	47.44229	-429.40918	561.24413	-256.58398	-325.35038	579.03152	-327.28516	-366.18496	564.20959	-164.96202	-380.94219	539.30222	-100.79246	-255.0802	555.86971	-40.06027	-254.8871	547.89146	-189.84213	-297.01817	139.80025	-270.87353	-298.48232	154.61823	-190.99817	-216.82713	141.83677	-216.16415	-332.22233	193.05483	-118.83562	-259.4945	185.73902	-75.41289	-265.5945	194.23902	-163.01289	-467.22656	1043.20045	1742.49603	-432.05666	1062.75352	1456.49826	-271.64146	1133.41148	1743.73245	-408.9772	1570.17868	1584.13437	-267.71843	1595.88486	1593.69049	-451.09684	1774.61304	1575.21057	-290.47903	1726.14471	1497.51816	-295.5917	1736.50055	1653.06778	-300.16315	1596.28754	1502.87369	-426.90056	1733.93646	1293.04932	-461.7345	1739.80667	1357.3735	-362.73586	1763.1517	1339.52545	-462.78027	2008.89618	1329.61182	-415.44754	2007.72308	1360.30151	-447.04647	1992.60132	1402.7359	-317.49954	1572.24762	1778.41385	-404.45992	1514.90936	2030.81512	-306.61955	1529.7995	2028.69171	-347.54841	1465.09811	2054.5195	-405.72186	1630.64148	2256.21979	-376.57391	1660.36621	2241.34079	-401.8465	1684.23584	2206.35712	-340.65331	1005.2726	1409.66721	-325.01232	1010.78407	1810.48645	-377.29889	455.06371	1450.80826	-277.9187	491.63582	1423.01041	-284.85077	458.92925	1543.58795	-358.31833	448.06683	1771.74484	-245.89533	486.40156	1787.28088	-317.76672	444.33609	1679.99222	-324.72637	130.53761	1417.8096	-295.46328	127.26215	1482.88086	-244.42791	128.82466	1417.92389	-323.29285	135.07009	1792.80762	-250.49782	125.05069	1806.73553	-294.20425	124.34095	1733.44299	-247.26799	1149.73274	1527.23846	-302.81382	1509.91714	288.69864
